<svg xmlns="http://www.w3.org/2000/svg" data-name="Layer 1" viewBox="0 0 512 512"><rect width="512" height="143" y="294.85" fill="#dedede"/><rect width="251" height="143" x="130.5" y="294.85" fill="#cecece"/><rect width="211" height="211" x="150.5" y="260.852" fill="#63ea86" rx="30"/><path fill="#4fe777" d="M331.5,260.85168h-45a30,30,0,0,1,30,30v151a30,30,0,0,1-30,30h45a30,30,0,0,0,30-30v-151A30,30,0,0,0,331.5,260.85168Z"/><rect width="61" height="211" x="406.5" y="260.852" fill="#676e87" rx="30"/><path fill="#595f74" d="M437.5,260.85168h-1a29.85786,29.85786,0,0,0-14.5,3.736,29.98808,29.98808,0,0,1,15.5,26.264v151a29.98809,29.98809,0,0,1-15.5,26.264,29.85785,29.85785,0,0,0,14.5,3.736h1a30,30,0,0,0,30-30v-151A30,30,0,0,0,437.5,260.85168Z"/><rect width="61" height="211" x="44.283" y="260.852" fill="#676e87" rx="30"/><path fill="#595f74" d="M75.28281,260.85168h-1a29.85783,29.85783,0,0,0-14.5,3.736,29.98808,29.98808,0,0,1,15.5,26.264v151a29.98809,29.98809,0,0,1-15.5,26.264,29.85782,29.85782,0,0,0,14.5,3.736h1a30,30,0,0,0,30-30v-151A30,30,0,0,0,75.28281,260.85168Z"/><circle cx="256" cy="366.352" r="66.226" fill="#fff"/><path fill="#eee" d="M256,300.126a66.36489,66.36489,0,0,0-15,1.727,66.21825,66.21825,0,0,1,0,128.99731A66.22306,66.22306,0,1,0,256,300.126Z"/><path fill="#676e87" d="M276.39212,373.48378a20.39658,20.39658,0,0,1-40.78424,0c0-11.02905,20.39212-34.23406,20.39212-34.23406S276.39212,362.45473,276.39212,373.48378Z"/><path fill="#595f74" d="M213.5,230.85168h85a9,9,0,0,1,9,9v21a0,0,0,0,1,0,0h-103a0,0,0,0,1,0,0v-21A9,9,0,0,1,213.5,230.85168Z"/><path fill="#4a4f60" d="M298.5,230.85168h-45a8.9999,8.9999,0,0,1,9,9v21h45v-21A8.9999,8.9999,0,0,0,298.5,230.85168Z"/><rect width="64.772" height="42.652" x="223.614" y="188.2" fill="#4a4f60"/><rect width="30" height="42.652" x="258.386" y="188.2" fill="#3b3f4d"/><circle cx="256" cy="104.5" r="97" fill="#66c1ff"/><path fill="#4eb7ff" d="M256,7.5a97.72313,97.72313,0,0,0-15,1.1554,97.01334,97.01334,0,0,1,0,191.6892A97.00526,97.00526,0,1,0,256,7.5Z"/><path fill="#fff" d="M256 63.17041a7.49974 7.49974 0 0 1-7.5-7.5v-15a7.5 7.5 0 0 1 15 0v15A7.49974 7.49974 0 0 1 256 63.17041zM201.72754 104.48926a7.541 7.541 0 0 1-1.28516-.11035l-15.084-2.6045a7.5 7.5 0 0 1 2.55273-14.78125l15.084 2.6045a7.50056 7.50056 0 0 1-1.26758 14.8916zM310.27246 104.48926a7.50056 7.50056 0 0 1-1.26758-14.8916l15.084-2.6045a7.5 7.5 0 0 1 2.55273 14.78125l-15.084 2.6045A7.53257 7.53257 0 0 1 310.27246 104.48926zM220.57422 77.94336a7.4831 7.4831 0 0 1-5.69922-2.62012l-9.8457-11.49072a7.5 7.5 0 1 1 11.39062-9.75977l9.8457 11.49073a7.5 7.5 0 0 1-5.6914 12.37988zM291.42578 77.94336a7.5 7.5 0 0 1-5.6914-12.37988l9.8457-11.49073a7.5 7.5 0 1 1 11.39062 9.75977L297.125 75.32324A7.48476 7.48476 0 0 1 291.42578 77.94336z"/><circle cx="256" cy="146.295" r="22.035" fill="#4a4f60"/><path fill="#4a4f60" d="M256,146.29492a7.49974,7.49974,0,0,1-7.5-7.5V85.32568a7.5,7.5,0,0,1,15,0v53.46924A7.49974,7.49974,0,0,1,256,146.29492Z"/></svg>